<svg width="358" height="225" viewBox="0 0 358 225" fill="none" xmlns="http://www.w3.org/2000/svg">
<g clip-path="url(#clip0_2_2)">
<rect x="36" y="26" width="99" height="139" fill="#9C2222"/>
<rect x="69" y="51" width="103" height="114" fill="#4ED94B"/>
<rect x="69" y="51" width="103" height="39" fill="#DA43F2"/>
<rect x="69" y="90" width="43" height="75" fill="#1E5EA9"/>
<path d="M193.009 84.1797C192.91 83.2493 192.491 82.5249 191.752 82.0064C191.021 81.4879 190.069 81.2287 188.897 81.2287C188.073 81.2287 187.366 81.353 186.777 81.6016C186.188 81.8501 185.737 82.1875 185.424 82.6136C185.112 83.0398 184.952 83.5263 184.945 84.0732C184.945 84.5277 185.048 84.9219 185.254 85.2557C185.467 85.5895 185.754 85.8736 186.116 86.108C186.479 86.3352 186.88 86.527 187.32 86.6832C187.761 86.8395 188.205 86.9709 188.652 87.0774L190.697 87.5888C191.521 87.7805 192.313 88.0398 193.073 88.3665C193.84 88.6932 194.526 89.1051 195.129 89.6023C195.74 90.0994 196.223 90.6996 196.578 91.4027C196.933 92.1058 197.111 92.9297 197.111 93.8743C197.111 95.1527 196.784 96.2784 196.131 97.2514C195.477 98.2173 194.533 98.9737 193.297 99.5206C192.068 100.06 190.58 100.33 188.833 100.33C187.136 100.33 185.662 100.067 184.412 99.5419C183.169 99.0163 182.196 98.2493 181.493 97.2408C180.797 96.2322 180.42 95.0036 180.364 93.5547H184.252C184.309 94.3146 184.543 94.9467 184.955 95.451C185.367 95.9553 185.903 96.3317 186.564 96.5803C187.232 96.8288 187.977 96.9531 188.801 96.9531C189.661 96.9531 190.413 96.8253 191.06 96.5696C191.713 96.3068 192.224 95.9446 192.594 95.483C192.963 95.0142 193.151 94.4673 193.158 93.8423C193.151 93.2741 192.984 92.8054 192.658 92.4361C192.331 92.0597 191.873 91.7472 191.283 91.4986C190.701 91.2429 190.019 91.0156 189.238 90.8168L186.756 90.1776C184.959 89.7159 183.538 89.0163 182.494 88.0788C181.457 87.1342 180.939 85.8807 180.939 84.3182C180.939 83.0327 181.287 81.907 181.983 80.9411C182.686 79.9751 183.641 79.2259 184.849 78.6932C186.056 78.1534 187.423 77.8835 188.95 77.8835C190.499 77.8835 191.855 78.1534 193.02 78.6932C194.192 79.2259 195.112 79.968 195.779 80.9197C196.447 81.8643 196.791 82.951 196.812 84.1797H193.009ZM200.634 100V78.1818H214.825V81.495H204.587V87.4183H214.09V90.7315H204.587V96.6868H214.91V100H200.634ZM218.857 100V78.1818H227.039C228.715 78.1818 230.121 78.473 231.258 79.0554C232.401 79.6378 233.264 80.4545 233.846 81.5057C234.436 82.5497 234.731 83.7678 234.731 85.1598C234.731 86.5589 234.432 87.7734 233.836 88.8033C233.246 89.826 232.376 90.6179 231.226 91.179C230.075 91.733 228.662 92.0099 226.986 92.0099H221.158V88.7287H226.453C227.433 88.7287 228.236 88.5937 228.861 88.3239C229.486 88.0469 229.947 87.6456 230.246 87.12C230.551 86.5874 230.704 85.9339 230.704 85.1598C230.704 84.3857 230.551 83.7251 230.246 83.1783C229.94 82.6243 229.475 82.2053 228.85 81.9212C228.225 81.63 227.419 81.4844 226.432 81.4844H222.809V100H218.857ZM230.128 90.1136L235.53 100H231.119L225.814 90.1136H230.128ZM240.731 78.1818L246.409 95.3551H246.633L252.301 78.1818H256.647L248.956 100H244.076L236.395 78.1818H240.731ZM263.474 78.1818V100H259.521V78.1818H263.474ZM286.429 85.5433H282.445C282.331 84.8899 282.121 84.3111 281.816 83.8068C281.511 83.2955 281.131 82.8622 280.676 82.5071C280.222 82.152 279.703 81.8857 279.121 81.7081C278.545 81.5234 277.924 81.4311 277.256 81.4311C276.07 81.4311 275.019 81.7294 274.103 82.326C273.187 82.9155 272.469 83.782 271.951 84.9254C271.433 86.0618 271.173 87.4503 271.173 89.0909C271.173 90.7599 271.433 92.1662 271.951 93.3097C272.477 94.446 273.194 95.3054 274.103 95.8878C275.019 96.4631 276.067 96.7507 277.246 96.7507C277.899 96.7507 278.51 96.6655 279.078 96.495C279.653 96.3175 280.168 96.0582 280.623 95.7173C281.085 95.3764 281.472 94.9574 281.784 94.4602C282.104 93.9631 282.324 93.3949 282.445 92.7557L286.429 92.777C286.28 93.8139 285.957 94.7869 285.46 95.696C284.969 96.6051 284.327 97.4077 283.531 98.1037C282.736 98.7926 281.805 99.3324 280.74 99.723C279.675 100.107 278.492 100.298 277.192 100.298C275.275 100.298 273.563 99.8544 272.058 98.9666C270.552 98.0788 269.366 96.7969 268.499 95.1207C267.633 93.4446 267.2 91.4347 267.2 89.0909C267.2 86.7401 267.636 84.7301 268.51 83.0611C269.384 81.3849 270.573 80.103 272.079 79.2152C273.585 78.3274 275.289 77.8835 277.192 77.8835C278.407 77.8835 279.536 78.054 280.58 78.3949C281.624 78.7358 282.555 79.2365 283.371 79.897C284.188 80.5504 284.859 81.353 285.385 82.3047C285.918 83.2493 286.266 84.3288 286.429 85.5433ZM290.048 100V78.1818H304.239V81.495H294.001V87.4183H303.504V90.7315H294.001V96.6868H304.324V100H290.048Z" fill="#BE2C0C"/>
<path d="M209.545 134H202.152V112.182H209.695C211.861 112.182 213.722 112.619 215.277 113.492C216.839 114.359 218.04 115.605 218.878 117.232C219.716 118.858 220.135 120.804 220.135 123.07C220.135 125.342 219.712 127.295 218.867 128.929C218.029 130.562 216.818 131.816 215.234 132.69C213.658 133.563 211.761 134 209.545 134ZM206.104 130.58H209.354C210.874 130.58 212.141 130.303 213.157 129.749C214.173 129.188 214.936 128.354 215.447 127.246C215.959 126.131 216.214 124.739 216.214 123.07C216.214 121.401 215.959 120.016 215.447 118.915C214.936 117.807 214.18 116.979 213.178 116.433C212.184 115.879 210.948 115.602 209.471 115.602H206.104V130.58ZM223.89 134V112.182H238.081V115.495H227.843V121.418H237.346V124.732H227.843V130.687H238.166V134H223.89ZM242.113 134V112.182H246.065V130.687H255.675V134H242.113ZM263.058 112.182V134H259.105V112.182H263.058ZM270.257 112.182L275.935 129.355H276.159L281.826 112.182H286.173L278.481 134H273.602L265.921 112.182H270.257ZM289.047 134V112.182H303.237V115.495H292.999V121.418H302.502V124.732H292.999V130.687H303.322V134H289.047ZM307.269 134V112.182H315.451C317.127 112.182 318.533 112.473 319.67 113.055C320.813 113.638 321.676 114.455 322.259 115.506C322.848 116.55 323.143 117.768 323.143 119.16C323.143 120.559 322.844 121.773 322.248 122.803C321.658 123.826 320.788 124.618 319.638 125.179C318.487 125.733 317.074 126.01 315.398 126.01H309.57V122.729H314.865C315.845 122.729 316.648 122.594 317.273 122.324C317.898 122.047 318.359 121.646 318.658 121.12C318.963 120.587 319.116 119.934 319.116 119.16C319.116 118.386 318.963 117.725 318.658 117.178C318.352 116.624 317.887 116.205 317.262 115.921C316.637 115.63 315.831 115.484 314.844 115.484H311.222V134H307.269ZM318.54 124.114L323.942 134H319.531L314.226 124.114H318.54ZM324.44 112.182H328.904L334.241 121.834H334.454L339.791 112.182H344.255L336.318 125.861V134H332.377V125.861L324.44 112.182Z" fill="#087B36"/>
<path d="M80.5 187.5C80.5 199.64 70.4368 209.5 58 209.5C45.5632 209.5 35.5 199.64 35.5 187.5C35.5 175.36 45.5632 165.5 58 165.5C70.4368 165.5 80.5 175.36 80.5 187.5Z" fill="#561515" stroke="black"/>
<circle cx="58.5" cy="187.5" r="9.5" fill="#F91A1A"/>
<path d="M171.5 187.5C171.5 199.63 161.223 209.5 148.5 209.5C135.777 209.5 125.5 199.63 125.5 187.5C125.5 175.37 135.777 165.5 148.5 165.5C161.223 165.5 171.5 175.37 171.5 187.5Z" fill="#561515" stroke="black"/>
<circle cx="149.5" cy="187.5" r="9.5" fill="#F91A1A"/>
</g>
<defs>
<clipPath id="clip0_2_2">
<rect width="358" height="225" rx="15" fill="white"/>
</clipPath>
</defs>
</svg>
